<svg xmlns="http://www.w3.org/2000/svg" viewBox="0 0 192.83 221.78"><defs><style>.cls-1{isolation:isolate;}.cls-2{fill:#e5e7ed;opacity:0.6;}.cls-3,.cls-8{fill:#d8dff4;}.cls-16,.cls-22,.cls-3{mix-blend-mode:multiply;}.cls-18,.cls-19,.cls-20,.cls-21,.cls-24,.cls-26,.cls-4,.cls-5,.cls-9{fill:none;stroke-miterlimit:10;}.cls-18,.cls-19,.cls-4,.cls-5,.cls-9{stroke:#fff;}.cls-4{stroke-width:0.31px;}.cls-5{stroke-width:0.21px;}.cls-6{fill:#fff;}.cls-7{fill:#32436b;}.cls-9{stroke-width:0.23px;}.cls-10{fill:#f2f5fc;}.cls-11,.cls-22{opacity:0.4;}.cls-12,.cls-16,.cls-22{fill:#6e80b4;}.cls-13{opacity:0.9;}.cls-14{opacity:0.8;}.cls-15{fill:#12121c;}.cls-16{opacity:0.2;}.cls-17{fill:#faa53c;}.cls-18{stroke-width:0.77px;}.cls-19,.cls-20,.cls-24{stroke-width:0.52px;}.cls-20,.cls-26{stroke:#12121c;}.cls-21{stroke:#6e80b4;stroke-width:1.03px;}.cls-23{fill:#ff7875;}.cls-24{stroke:#32436b;}.cls-25{fill:#e08a2d;}.cls-26{stroke-width:0.26px;}</style></defs><title>1</title><g class="cls-1"><g id="Layer_2" data-name="Layer 2"><g id="OBJECTS"><path class="cls-2" d="M19.27,33.53C2.13,50.4-.23,75.37,8.91,101.32c3.59,10.22,7.75,20.37,5.14,31.33C11.39,143.85,4.51,154,1.46,165.2c-6.65,24.53,10.45,40.21,31.47,43.48,13.28,2.06,27-1.1,39.83,4,10.08,4,18.11,9.76,29.34,9,12.59-.82,24.36-7.55,35.93-13,12.14-5.77,21.45-5.31,33.49-8,27.21-6.16,15.74-54.2,10.55-74-6.68-25.54,2.91-46.35,1.17-71.41-2.28-32.94-16.14-50-47-54.43C116.47-2,48.9,2,29.76,25.39,26.69,29.13,22.3,30.55,19.27,33.53Z"/><path class="cls-3" d="M129.3,198.79c2.06-5.8,1.67-13,1.75-19.17.12-8.67-4-16.16-4.81-24.76-1.3-14.17,1.47-28.84,8.69-40.76,6.48-10.69,12-20.44,22.76-27.55,4-2.67,8.05-5.13,11.49-8.57,3.67-3.69,4.74-7.47,7.18-11.54a10,10,0,0,0,.59-2.53c4.63,4.75,6.28,13.22,8.13,19.28s5,12.91,5.25,19.34a74.16,74.16,0,0,1-14.42,46.26,209.59,209.59,0,0,1-23.79,26.83c-6.16,5.92-13.35,10.85-18.81,17.36-1.41,1.68-3.16,5.65-5,5.71"/><path class="cls-4" d="M176.41,78.57c.32,7.87-1.65,13.36-4.93,20.14-5.27,10.9-10.66,21.42-14.7,33-3.61,10.37-7,20.84-10.57,31.26-1.49,4.4-2.84,8.92-4.07,13.41-.85,3.11-.07,7.72-1.47,10.36"/><path class="cls-4" d="M134.85,130.5a60.86,60.86,0,0,0,7.92,23.65"/><path class="cls-4" d="M148.57,103.43c-3.37,7.83,1.41,15.55,2.1,23"/><path class="cls-4" d="M162,92.18a32,32,0,0,0-.79,15"/><path class="cls-4" d="M171.87,109.23c2.13-4.16,8.87-7.48,12.45-10.42"/><path class="cls-4" d="M162.21,129.55c2.42-4.28,6.72-5.73,10.88-8,2.84-1.54,9.37-8.19,10.65-8.11"/><path class="cls-4" d="M151.74,158.09a64.18,64.18,0,0,1,19.11-14.64"/><path class="cls-3" d="M126,201.58c2.86-2.77,4.74-7,6.59-10.42,2.6-4.88,2.45-10.17,4.52-15.24A45.53,45.53,0,0,1,154,155c6.78-4.42,12.77-8.53,20.91-9.84a47.25,47.25,0,0,0,9-2c3.15-1.16,4.86-3,7.43-4.71a7.41,7.41,0,0,0,1.07-1.29c1.23,3.86-.31,9.08-1,13s-1,8.57-2.69,12.28A50.37,50.37,0,0,1,167,185a142.87,142.87,0,0,1-21.28,9.18C140.47,196,135,197,130,199.3c-1.29.6-3.44,2.4-4.49,2"/><path class="cls-5" d="M187.78,145.39c-2.12,4.54-4.83,7.15-8.67,10.16-6.16,4.85-12.29,9.44-18,15-5.07,5-10.06,10-15.1,15-2.13,2.12-4.22,4.33-6.23,6.57-1.39,1.54-2.29,4.36-3.86,5.5"/><path class="cls-5" d="M149.11,164.29a38,38,0,0,0-2.43,15.41"/><path class="cls-5" d="M164.78,152.43C160.59,156,161,161.6,159.23,166"/><path class="cls-5" d="M175.68,149.46a21.16,21.16,0,0,0-4.83,8.31"/><path class="cls-5" d="M176.25,161.61c2.42-1.82,7.2-2,10.08-2.75"/><path class="cls-5" d="M164.86,170.68c2.62-1.81,5.47-1.54,8.47-1.76,2.06-.15,7.7-2.27,8.39-1.9"/><path class="cls-5" d="M150.59,184.2a43.26,43.26,0,0,1,15.08-3.46"/><rect class="cls-6" x="54.41" y="27.55" width="118.51" height="83.88"/><rect class="cls-7" x="53.16" y="21.09" width="121.01" height="10.05"/><rect class="cls-8" x="53.16" y="31.14" width="120.84" height="8.12"/><line class="cls-9" x1="53.93" y1="34.17" x2="174" y2="34.17"/><rect class="cls-10" x="122.96" y="44" width="22.54" height="32.83"/><path class="cls-7" d="M135.64,47.56a1.41,1.41,0,1,1-1.41-1.41A1.41,1.41,0,0,1,135.64,47.56Z"/><rect class="cls-8" x="124.04" y="51.87" width="20.37" height="1"/><rect class="cls-8" x="124.81" y="54.98" width="18.84" height="1.57"/><rect class="cls-8" x="124.56" y="61.82" width="19.33" height="1.13"/><rect class="cls-8" x="125.6" y="65.55" width="17.25" height="1.53"/><rect class="cls-8" x="128.26" y="72.09" width="11.93" height="1.55"/><g class="cls-11"><rect class="cls-7" x="150.34" y="50.81" width="7.12" height="6.39"/><rect class="cls-12" x="150.34" y="59.61" width="7.12" height="6.39"/><rect class="cls-8" x="150.31" y="68.42" width="7.12" height="6.39"/></g><rect class="cls-7" x="132.46" y="82.29" width="7.12" height="6.39"/><rect class="cls-12" x="132.46" y="91.1" width="7.12" height="6.39"/><rect class="cls-8" x="132.43" y="99.91" width="7.12" height="6.39"/><g class="cls-13"><rect class="cls-7" x="141.85" y="82.43" width="7.12" height="6.39"/><rect class="cls-12" x="141.85" y="91.23" width="7.12" height="6.39"/><rect class="cls-8" x="141.83" y="100.04" width="7.12" height="6.39"/></g><g class="cls-14"><rect class="cls-7" x="151.29" y="82.43" width="7.12" height="6.39"/><rect class="cls-12" x="151.29" y="91.23" width="7.12" height="6.39"/><rect class="cls-8" x="151.26" y="100.04" width="7.12" height="6.39"/></g><rect class="cls-15" x="-6.21" y="162.52" width="71.21" height="3.44" transform="translate(-135.26 191.19) rotate(-89.15)"/><rect class="cls-15" x="91.99" y="164.02" width="71.21" height="3.44" transform="translate(-40.12 290.74) rotate(-89.11)"/><polygon class="cls-12" points="139.23 144.93 15.59 143.04 21.71 107.62 130.95 108.51 139.23 144.93"/><polygon class="cls-15" points="52.71 117.88 46.23 135.44 109.21 136.41 101.69 118.63 52.71 117.88"/><polygon class="cls-7" points="55.74 120.33 52.43 132.17 102.89 132.94 98.21 120.95 55.74 120.33"/><path class="cls-16" d="M131.08,134.16c-5.75-4.44-12.26-8.06-19.64-8.62-6.87-.52-13.74.67-20.59,1.15-11.76.83-26,1.67-36.38-5.07-3.28-2.14-7-5.15-7.15-9.46a6.6,6.6,0,0,1,1.34-4.32l-26.95-.22L15.59,143l123.64,1.89-.75-3.27A40.37,40.37,0,0,0,131.08,134.16Z"/><rect class="cls-7" x="66.79" y="91.34" width="22.64" height="13.34" transform="translate(-21.09 174.59) rotate(-89.11)"/><rect class="cls-7" x="54.65" y="32.45" width="47.75" height="76.99" transform="translate(6.39 148.37) rotate(-89.12)"/><rect class="cls-12" x="57.31" y="34.85" width="42.45" height="70.91" transform="translate(7.03 147.76) rotate(-89.12)"/><path class="cls-7" d="M57.55,106.13l-.11,6.81c0,1.19,1.46,2.18,3.3,2.21l34.21.53c1.84,0,3.35-.92,3.37-2.12l.1-6.8Z"/><polygon class="cls-17" points="93.86 90.01 59.38 90.01 59.81 52.59 94.62 53.12 93.86 90.01"/><path class="cls-8" d="M64.6,73.44c.46,1.5,1.9,2.42,3,3.44s1.1,1.86,1.49,3.28a4.66,4.66,0,0,0,3.05,3.5c2.75.65,4-2,4.3-4.36.2-1.84,0-3.73,1.08-5.32a6.55,6.55,0,0,1,5.58-2.76c1.48,0,2.85,0,3.89-1.22s2.36-4.23,1.36-6A20.14,20.14,0,0,0,86.67,62c-.45-.63-.43-1.39-.74-1.93-1-1.7-4.49-.27-5.88.27-1.89.72-3.65,1.91-5.58,2.5-1.65.5-2.34-1.1-3.8-.74C62,64.29,63.91,71.08,64.6,73.44Z"/><path class="cls-12" d="M76.46,77c1.61,1.06,3.72,1,5.53,1.52s2.63,2.56,4.31,2.62c2,.08,3-1.86,3.33-3.61A19.92,19.92,0,0,1,91.38,73c.67-1.51.67-3.09-.64-4.18a17.42,17.42,0,0,0-4-2.23C80.26,63.59,66.81,70.68,76.46,77Z"/><path class="cls-18" d="M63.93,83.27c.51-2.51,2.32-5.5,5.12-6.07,3.21-.66,6.33.32,9.46-1.13a12.54,12.54,0,0,0,7.62-10.94c.09-2.12-.39-4.21,1-6,.18-.24,1-1.21.78-.79"/><path class="cls-18" d="M65,84.64c.78-6.57,7.7-5.84,12.22-6.21,3.81-.32,8.24-3,9.64-6.85a17.12,17.12,0,0,0,1-7.14c-.16-2.52.72-3.95,1.74-6"/><path class="cls-19" d="M65.65,70.81c.15.68,1.09.67,1-.06s-1.22-.45-.77.36"/><path class="cls-19" d="M66.18,66.39c-.21.65.56,1.09.94.45.46-.81-.51-1-1-.77a2.51,2.51,0,0,0,.2.76"/><path class="cls-19" d="M67.59,68.6c-.38.82.92,1.62,1.08.65.12-.8-1.37-1.09-.9,0"/><path class="cls-19" d="M68.71,65.08c-.11.77.83,1.79,1.18.7.3-.92-1.41-1.56-1.19-.34"/><path class="cls-19" d="M83.56,82.11a.71.71,0,0,0,.87.69c.2-.5,0-1-.52-1a.89.89,0,0,0-.12.75"/><path class="cls-19" d="M85.48,77.06c-.83.61.34,2,.81,1a.52.52,0,1,0-1-.32"/><path class="cls-19" d="M86.93,80.21c-.49.91.74,2.38,1.23,1.29s-.77-1.38-1.38-1.11A.86.86,0,0,0,87,81"/><path class="cls-19" d="M88.07,74.79c-.06.36.3,1.46.67.77.27-.48-.2-1.16-.65-.78,0,.23.13.14.15.2"/><path class="cls-16" d="M102.28,84.65c-2.7-2.66-5.23-5.74-8.53-7.7C90.12,74.8,86.06,74,82,73.06c-3.86-.87-7.89-1.8-11.29-3.93a29.83,29.83,0,0,1-7.76-7.6c-2.72-3.54-5.45-6.93-9.39-9.19-2.33-1.33-4.74-2.49-7.09-3.75l-3.05-.05L42.76,91l70.91,1.08v0A40.67,40.67,0,0,1,102.28,84.65Z"/><path class="cls-7" d="M119.35,130.48a4,4,0,0,1-4,3.92h0a4,4,0,0,1-3.93-4l.07-4.19a4,4,0,0,1,4-3.92h0a4,4,0,0,1,3.92,4Z"/><line class="cls-20" x1="59.38" y1="50.67" x2="59.38" y2="55.79"/><line class="cls-20" x1="56.26" y1="52.59" x2="61.55" y2="52.59"/><line class="cls-20" x1="94.62" y1="51.61" x2="94.62" y2="55.79"/><line class="cls-20" x1="92.54" y1="53.09" x2="96.8" y2="53.09"/><line class="cls-20" x1="58.9" y1="87.55" x2="58.9" y2="90.01"/><line class="cls-20" x1="57.44" y1="89.92" x2="60.98" y2="89.92"/><line class="cls-20" x1="93.7" y1="88.28" x2="93.7" y2="90.73"/><line class="cls-20" x1="91.82" y1="89.92" x2="96.15" y2="89.92"/><path class="cls-7" d="M28.66,124.35c2.78,8.73,2.25,16.28,2.57,25.48a6.08,6.08,0,0,0,2.75,0c2.31-7.67,2.33-20.23-2.89-26.5a14.62,14.62,0,0,1-1.95,1.46"/><path class="cls-7" d="M17.12,84.48c-3.74,2.18-2.71,7.7-2.42,11.2.54,6.39.21,12.86.94,19.22,1.16,10,.63,16.13,12.12,17,6.61.5,14.76,2.71,20.59-1.38s4.94-14,4.73-20.5c-.27-8.63-2.12-21.57-11-25.27C42.12,84.75,27,78.69,17.12,84.48Z"/><path class="cls-21" d="M23.64,85.74c7.87.25,16.85,2,20.27,10,2.07,4.83,5.5,24.1,2.58,27.46"/><path class="cls-7" d="M65.53,152.19c0,3.55-3.28,6.38-7.2,6.32L24.26,158c-3.92-.06-7.06-3-7-6.54h0c0-3.55,3.27-6.37,7.19-6.31l34.08.52c3.92.06,7.06,3,7,6.53Z"/><rect class="cls-7" x="21.61" y="172.01" width="34.56" height="5.61" transform="translate(-136.51 211.02) rotate(-89.12)"/><rect class="cls-7" x="36.57" y="176.05" width="2.87" height="33.03" transform="translate(-155.12 227.61) rotate(-89.12)"/><rect class="cls-7" x="19.77" y="192.58" width="7.17" height="3.81" transform="translate(-171.46 214.85) rotate(-89.12)"/><rect class="cls-7" x="49.96" y="192.8" width="7.17" height="4.3" transform="translate(-142.18 245.55) rotate(-89.14)"/><path class="cls-7" d="M27.56,199.1a4.27,4.27,0,1,1-4.2-4.33A4.27,4.27,0,0,1,27.56,199.1Z"/><path class="cls-22" d="M25,195.11a4.26,4.26,0,0,1-1.73,8.19A4.18,4.18,0,0,1,20,201.76C20.6,201.58,25.49,197.6,25,195.11Z"/><path class="cls-7" d="M58.23,199.57a4.27,4.27,0,1,1-4.2-4.33A4.28,4.28,0,0,1,58.23,199.57Z"/><path class="cls-22" d="M55.62,195.58a4.26,4.26,0,1,1-4.93,6.65C51.27,202.06,56.16,198.07,55.62,195.58Z"/><path class="cls-16" d="M40.87,132.89a23.7,23.7,0,0,0,3.86-8c.68-3.17-.33-6.57-1.16-9.62-.74-2.67-1.36-5.39-2.14-8C38.11,95.84,30.32,86,17.89,84.75a.52.52,0,0,1-.46-.44l-.31.17c-3.74,2.18-2.71,7.7-2.42,11.2.54,6.39.21,12.86.94,19.22,1.16,10,.63,16.13,12.12,17C31.85,132.21,36.52,133.17,40.87,132.89Z"/><path class="cls-21" d="M31.72,144.62a6.6,6.6,0,0,0,2.47,0"/><path class="cls-21" d="M31.75,142.61a4,4,0,0,0,2.17-.12"/><path class="cls-21" d="M31.78,140.45c.92.08,1.61-.3,2.48-.27"/><path class="cls-21" d="M31.66,138.44a14.71,14.71,0,0,0,2.32-.27"/><path class="cls-21" d="M31.38,136.28a7.56,7.56,0,0,0,2.48-.12"/><path class="cls-21" d="M31.41,134.27a22.43,22.43,0,0,1,2.47.19"/><path class="cls-23" d="M55.44,86C68.18,93.94,89,78.26,89,78.26c.65-.52,5.21-4.41,5.16-2.9s-1.34,1.87-1.43,2.37,8.68-2.63,8.88-1.58c.28,1.48-5.77,2.36-4.88,3s6-1.2,6.1-.33c.23,1.39-5.86,1.72-5.58,2.28s5.16-1.08,5.39-.13c.33,1.34-6.32,1.92-5.62,2.41s4.23-.41,4.23.28S89.2,85.87,89.2,85.87s-18.37,19.06-38.54,8.31Z"/><path class="cls-17" d="M41.13,78.93c-3.45,3.29,2.18,10.76,4.21,13.51a22.61,22.61,0,0,0,9,7c8.53,3.71,18.3-.71,26.51-3.12-.4-4.37-4.06-8.5-4.29-12.85-6.74.14-12.59,2.41-19.44.35-2.33-.7-16.31-7.08-16.3-3.56"/><path class="cls-15" d="M67.39,197.58a8.08,8.08,0,0,0-5,.44c-1.77.67-3.2-2.3-3.67-3.1-.1-.16-.32-.11-.41.1L55,202.53l20.8,6.52a.56.56,0,0,0,.62-.45L77,207a.63.63,0,0,0-.12-.65Z"/><path class="cls-23" d="M57.88,196l2.38-12.41,9.57,1.84-2.44,12.17S65,199.21,63,199.07,57.88,196,57.88,196Z"/><path class="cls-15" d="M85.42,199a8,8,0,0,0-4.88,1.27c-1.63.95-3.54-1.74-4.14-2.45-.12-.14-.32-.06-.38.16l-2,8,21.59,3c.25,0,.5-.22.54-.55l.23-1.7a.6.6,0,0,0-.23-.62Z"/><path class="cls-23" d="M75.77,199l.28-12.63,9.74.21L85.42,199s-2.07,2-4.11,2.19S75.77,199,75.77,199Z"/><path class="cls-7" d="M86.28,191.27,75.6,191l-2.37-41.75S38.4,151.4,36.7,142.88s.48-21.81.48-21.81l15.41.14,1.08,4.5s31.69-.31,33.82,5.25S91.83,148.59,86.28,191.27Z"/><path class="cls-12" d="M31.43,118.13S23,134.06,25.54,142.46c3.8,12.62,36.91,8.71,36.91,8.71l-4.64,38.25,10.83,3.3s18.27-50.54,13.13-58.4c-4.06-6.21-21.31-6.56-23.49-7.26-3.12-1-3.42-9.35-3.42-9.35Z"/><path class="cls-24" d="M31.82,131.68s-1.1,5,1.66,5.87,38.88,2.73,39.3,6c.88,6.8-8.93,47.07-8.93,47.07"/><path class="cls-17" d="M24.94,82.83s13.58-5.77,18.87-3.08C48.5,82.14,54.56,91.92,55.4,97.32c.78,5.11,3,27.75,2.88,29.74l-32.88,1.8S22.58,89.59,24.94,82.83Z"/><path class="cls-25" d="M52.15,121.8c-2.15-1.88-5.68-2-7-4.77-2.55-5.32,6.45-9.44,7.28-14.13.37-2.1-2-3.41-3.87-3.25a15.77,15.77,0,0,0-4.8,1.59c-1.63.7-3.72,1.68-5.16.13-2.19-2.36-.73-7.48.32-10,1.61-3.82,4.42-7,6.71-10.43a10.71,10.71,0,0,0-1.82-1.22c-5.29-2.69-18.87,3.08-18.87,3.08-2.36,6.76.46,46,.46,46l28.47-1.56A5.73,5.73,0,0,0,52.15,121.8Z"/><path class="cls-23" d="M55.25,124s5.92-.84,5.72-2-5.9.17-5.9.17,6.43-1.66,5.87-2.81-5.7,1.31-6.27.79,6-2.18,5.3-3.2-9.5,1.93-9.5,1.93,1.36-5.34.89-5.6-3.72,5.38-3.72,5.38c-5.22-.27-16.27-3.11-19.23-6.48-.75-.85,1.13-24.48.15-26.24-.76-1.36-3.62-3.09-3.62-3.09-10.18,3.79-15,40.06,2.79,41,10.05.52,31.62.87,31.62.87C59.18,122.67,55.25,124,55.25,124Z"/><path class="cls-17" d="M24.36,81.94S8.12,92.55,15.51,114.5c1.7,5,3,8,7.43,9.19s22.24,2.51,22.24,2.51l.3-8.81s-7.4-.82-11.17-4.29-5.71-9.47-5.6-15.21,1.32-8.31-.15-12S24.36,81.94,24.36,81.94Z"/><path class="cls-23" d="M34.75,74,33.6,80.42l3.48,4.07c1.15,1.11,4.55,3.5,5.31.05h0L42,78.63l-5.74-5.57a5.69,5.69,0,0,0-1.06.84C35.1,74.14,34.75,74,34.75,74Z"/><path class="cls-23" d="M40.42,62.73a4.6,4.6,0,0,0-1.3-.17c-.14,0-.27.08-.42.1-5.39,1-5.27,6.39-5.33,7.35-.12,1.74,2,7.47,4.78,7.83.27,0,2.87,1.94,5.34.17,1.32-.94,2.41-3.24.74-10.8A5.4,5.4,0,0,0,40.42,62.73Z"/><path class="cls-26" d="M41,68.74c.78,1.09,4.22,3.94,1.07,4.12"/><path class="cls-15" d="M39.82,70.23a.52.52,0,1,1-.5-.5A.5.5,0,0,1,39.82,70.23Z"/><path class="cls-15" d="M43.73,68.46a.52.52,0,1,1-.5-.49A.49.49,0,0,1,43.73,68.46Z"/><path class="cls-26" d="M37.29,69.87c.07-.76,1.14-1.17,1.72-1.38"/><path class="cls-26" d="M41.72,67.57c.51-.75,1.13,0,1.5-.08,0,0,.26-.6.22-.63"/><path class="cls-26" d="M41,74.29a2.49,2.49,0,0,0,2.58-.12"/><path class="cls-15" d="M43,59.66c-1.14-.51-1.63-1.41-2.94-1.83-1.72-.56-4.21-1.38-6-.8-1.52.48-2.51,1.72-3.84,2.54a3.15,3.15,0,0,0-.94,0,5.71,5.71,0,0,0-3.06,2.6c-1,2,.23,4.87-1.1,6.62-1.13,1.48-2.57,1.63-3.31,3.47A2.66,2.66,0,0,0,22.1,75c.67.93,1.41,1.29,1.34,2.91a3.21,3.21,0,0,0,.46,2.26,5.85,5.85,0,0,0,3.19,2.13c1,.2,2.36,1,3.49.88a6.36,6.36,0,0,0,.66-.19,5.63,5.63,0,0,0,2.1-1.72c.1-.3-.07-.68.11-1,.88-1.68,1-3.23,1.6-5.35.65-2.28-1.51-4.26-1.38-6,0,0,4.66-6.53,6.19-6,.08,0,.14.13.25.13,1.9.17,3.43,5.14,5.7,2.54C47.76,63.29,44.8,60.47,43,59.66Z"/><path class="cls-23" d="M35.69,72.35a1.85,1.85,0,1,1-1.79-1.92A1.85,1.85,0,0,1,35.69,72.35Z"/></g></g></g></svg>