<svg xmlns="http://www.w3.org/2000/svg" viewBox="0 0 232.36 184.57"><defs><style>.cls-1{isolation:isolate;}.cls-2{fill:#e5e7ed;opacity:0.6;}.cls-3,.cls-6{fill:#d8dff4;}.cls-3{mix-blend-mode:multiply;}.cls-10,.cls-15,.cls-16,.cls-18,.cls-19,.cls-4,.cls-7,.cls-8{fill:none;stroke-miterlimit:10;}.cls-19,.cls-4{stroke:#fff;}.cls-16,.cls-18,.cls-4{stroke-width:0.24px;}.cls-5{fill:#32436b;}.cls-18,.cls-7{stroke:#32436b;}.cls-10,.cls-7,.cls-8{stroke-width:0.73px;}.cls-8{stroke:#d8dff4;}.cls-9{fill:#6e80b4;}.cls-10,.cls-15,.cls-16{stroke:#12121c;}.cls-11{fill:#ff7875;}.cls-12{fill:#12121c;}.cls-13{fill:#faa53c;}.cls-14{fill:#e08a2d;}.cls-15{stroke-width:0.49px;}.cls-17{fill:#fff;}.cls-19{stroke-width:0.97px;}</style></defs><title>6</title><g class="cls-1"><g id="Layer_2" data-name="Layer 2"><g id="OBJECTS"><path class="cls-2" d="M8.18,111.91C16,131.52,1.4,139.85,3.56,157.47c3.39,27.68,41.87,10.34,55.9,7.21,15.54-3.48,31.27-2.56,47.18-2.56,17,0,35.39-1.08,52.34.91,11,1.28,20.77,7,32.16,5.59,10.1-1.22,18.42-7.21,25.49-14.86C234,134.94,235.15,110.49,228.85,86c-3.81-14.89-2.91-16.1-10.47-42.09-4-13.63-9.9-41.18-67.23-42.45C135.61,1.07,121,3.59,105.56,5.08,24.48,12.89-18.72,44.47,8.18,111.91Z"/><path class="cls-3" d="M73.86,145.58c-3.18-3.12-7.91-5.12-11.84-7.09-5.54-2.78-11.46-2.47-17.19-4.64A51,51,0,0,1,21,115.58c-5.13-7.47-9.91-14.06-11.6-23.14A52.55,52.55,0,0,0,7,82.43c-1.39-3.5-3.53-5.36-5.49-8.19A8.13,8.13,0,0,0,0,73.07c4.29-1.48,10.18.11,14.56.81s9.62.84,13.82,2.68A56.44,56.44,0,0,1,54.23,100.2a160.49,160.49,0,0,1,10.86,23.57c2.15,5.79,3.39,11.92,6.11,17.43.7,1.43,2.78,3.79,2.33,5"/><path class="cls-4" d="M9.27,78c5.14,2.24,8.14,5.22,11.62,9.43,5.59,6.76,10.9,13.49,17.26,19.68,5.69,5.55,11.5,11,17.24,16.51,2.43,2.32,5,4.6,7.52,6.78,1.77,1.51,4.94,2.45,6.26,4.17"/><path class="cls-4" d="M31.49,120.75a42.29,42.29,0,0,0,17.31,2.3"/><path class="cls-4" d="M17.78,103.54c4.12,4.59,10.37,3.94,15.36,5.84"/><path class="cls-4" d="M14.16,91.42a23.75,23.75,0,0,0,9.43,5.19"/><path class="cls-4" d="M27.74,90.45c-2.1-2.66-2.42-8-3.35-11.21"/><path class="cls-4" d="M38.21,103c-2.1-2.89-1.88-6.08-2.21-9.44-.22-2.3-2.75-8.55-2.35-9.34"/><path class="cls-4" d="M53.73,118.55a48.2,48.2,0,0,1-4.28-16.78"/><path class="cls-3" d="M82.53,126.13c-3.23-5.43-9-9.87-13.71-14-6.61-5.81-14.84-7.5-21.93-12.54C35.2,91.27,25.56,79.45,20.69,66,16.33,53.84,12.14,43.08,13.08,30c.35-4.92.86-9.67.26-14.63-.64-5.3-2.92-8.62-4.59-13.21A11.2,11.2,0,0,0,7.15,0c6.43-.49,13.93,3.79,19.71,6.34S39.76,11,44.87,15C58,25.4,67.59,40.71,71.88,56.76A229.11,229.11,0,0,1,78.33,93c.88,8.72.38,17.59,2.13,26.13.45,2.22,2.46,6.2,1.42,7.66"/><path class="cls-4" d="M18.11,10.12c6.26,4.93,9.31,10.09,12.57,17.11,5.24,11.3,10.12,22.45,16.63,33.23,5.83,9.66,11.85,19.24,17.76,28.86,2.49,4.07,5.16,8.1,7.89,12,1.88,2.71,5.91,5.14,7.1,8"/><path class="cls-4" d="M33.27,76.82a60,60,0,0,0,22.94,9.37"/><path class="cls-4" d="M20.62,48.26c4,7.79,12.82,9.14,19,13.53"/><path class="cls-4" d="M20,30.32A33.59,33.59,0,0,0,31.09,40.83"/><path class="cls-4" d="M39,33.86c-1.92-4.41-.45-11.86-.58-16.59"/><path class="cls-4" d="M48.88,54.79c-1.84-4.71-.39-9,.36-13.75.52-3.24-.7-12.72.12-13.67"/><path class="cls-4" d="M64.6,81.78a68.61,68.61,0,0,1,.15-24.58"/><path class="cls-5" d="M70.61,152.93a3.19,3.19,0,1,1-3.19-3.19A3.18,3.18,0,0,1,70.61,152.93Z"/><path class="cls-5" d="M93.82,152.93a3.19,3.19,0,1,1-3.19-3.19A3.18,3.18,0,0,1,93.82,152.93Z"/><path class="cls-5" d="M116.85,152.93a3.19,3.19,0,1,1-3.18-3.19A3.18,3.18,0,0,1,116.85,152.93Z"/><path class="cls-5" d="M152.86,152.93a3.19,3.19,0,1,1-3.19-3.19A3.18,3.18,0,0,1,152.86,152.93Z"/><rect class="cls-6" x="95.35" y="30.58" width="69.68" height="121.12"/><line class="cls-7" x1="96.55" y1="44.8" x2="96.55" y2="151.7"/><line class="cls-7" x1="96.31" y1="74.71" x2="165.03" y2="74.71"/><rect class="cls-5" x="96.33" y="30.82" width="47.55" height="27.95"/><polyline class="cls-8" points="96.91 46.27 124.81 46.27 143.88 58.77"/><rect class="cls-9" x="100.69" y="103.64" width="59.37" height="11.77"/><rect class="cls-9" x="100.69" y="118.6" width="59.37" height="11.77"/><rect class="cls-9" x="100.69" y="133.55" width="59.37" height="11.77"/><rect class="cls-5" x="123.04" y="103.64" width="14.68" height="3.43"/><rect class="cls-5" x="123.04" y="118.6" width="14.68" height="3.43"/><rect class="cls-5" x="123.04" y="133.55" width="14.68" height="3.43"/><line class="cls-7" x1="96.33" y1="58.77" x2="165.03" y2="58.77"/><polygon class="cls-6" points="57.22 28.62 57.22 151.7 96.55 151.7 96.55 44.8 75.01 28.62 57.22 28.62"/><line class="cls-7" x1="58.2" y1="60.49" x2="95.27" y2="60.49"/><polygon class="cls-5" points="39.86 35.24 57.22 70.79 57.22 44.8 44.76 32.05 39.86 35.24"/><path class="cls-3" d="M95,144.58a19.57,19.57,0,0,1-2.48-6.82c-.36-2.69-.32-5.45-.79-8.13-.68-3.83-2.6-7.81-6.29-9.57-2.49-1.18-5.23-1.48-7.79-2.45a12.94,12.94,0,0,1-7.31-7.39C67,101.91,68.62,92.05,70,83.47c2.31-14.7,7.49-43.76-12.76-48.13V151.7H96.55v-4.13C96.07,146.58,95.57,145.59,95,144.58Z"/><line class="cls-10" x1="45" y1="38.08" x2="56.75" y2="58.77"/><path class="cls-3" d="M160.93,145.14c-2.2-1-4.63-2-6.44-3.71-3.21-3-4-7.46-3.32-11.68s2.44-8.17,3.67-12.28c1.13-3.77,1.79-8.2-2.15-10.58-5.41-3.28-12.37-2.89-18.32-4.62-4.56-1.33-10.28-3.87-12.13-8.66-3.25-8.44,6.44-18.67-1.74-25.81-6.49-5.67-17.26-5.42-25.15-3.43V151.7H165v-3.93A17.77,17.77,0,0,0,160.93,145.14Z"/><polygon class="cls-6" points="101.92 16.11 98.27 30.82 162.11 30.82 159.06 16.14 101.92 16.11"/><path class="cls-3" d="M158.8,23.79c-5.48.08-10.77-.91-16.21-1.26a38.6,38.6,0,0,0-9.11.35c-2.14.37-4,1.38-6.1,1.95-1.86.52-5.52,1.14-6.62-1-1-2,.45-4.8-2.18-6.16-2.86-1.48-6.8-1-9.88-.58a73,73,0,0,0-7.33,1.29l-3.1,12.48h63.84l-1.47-7.08C160,23.77,159.41,23.79,158.8,23.79Z"/><path class="cls-3" d="M142.38,55.93l.26-.07c-.1,0-.19-.09-.29-.12-2.67-1-5.34-1.82-7.38-3.89-1.52-1.54-2-4-2.65-5.93-1.32-4.18-4.06-6.29-8.58-6.37-3.54-.06-7.35.72-10.82-.28a19.54,19.54,0,0,1-7.27-4.4c-2.62-2.24-5-3.09-8.45-2.51a.43.43,0,0,1-.28,0l0,0-.54.2V58.77h47.55V57c-.5,0-1-.09-1.5-.16S142,56.08,142.38,55.93Z"/><rect class="cls-9" x="126.66" y="20.88" width="44.47" height="22.34"/><rect class="cls-5" x="129.18" y="23.7" width="37.96" height="16.43"/><line class="cls-4" x1="133.71" y1="26.43" x2="133.71" y2="36.18"/><line class="cls-4" x1="141.15" y1="26.43" x2="141.15" y2="36.18"/><line class="cls-4" x1="148.6" y1="26.43" x2="148.6" y2="36.18"/><line class="cls-4" x1="156.04" y1="26.43" x2="156.04" y2="36.18"/><line class="cls-4" x1="163.49" y1="26.43" x2="163.49" y2="36.18"/><line class="cls-4" x1="130.88" y1="29.87" x2="165.16" y2="29.87"/><line class="cls-4" x1="130.88" y1="33.2" x2="165.16" y2="33.2"/><rect class="cls-11" x="135.59" y="26.27" width="4.11" height="2.74"/><rect class="cls-9" x="143.02" y="26.27" width="4.11" height="2.74"/><rect class="cls-9" x="149.95" y="26.27" width="4.11" height="2.74"/><rect class="cls-9" x="157.2" y="26.27" width="4.11" height="2.74"/><path class="cls-12" d="M195.9,177.82a6.45,6.45,0,0,1,3.73,1.54c1.2.93,3-1,3.55-1.5.12-.1.27,0,.29.18l.69,6.53H186.69c-.21,0-.37-.22-.37-.5V182.7a.5.5,0,0,1,.25-.47Z"/><path class="cls-11" d="M203.56,178.87l1.15-10.06-7.76-.89-1,9.9a6.8,6.8,0,0,0,3,2.19C200.52,180.39,203.56,178.87,203.56,178.87Z"/><path class="cls-12" d="M217.94,154.35a6.44,6.44,0,0,1,.26-4c.5-1.43-1.91-2.51-2.57-2.88-.13-.07-.09-.24.08-.32l5.95-2.76,5.64,16.54a.45.45,0,0,1-.35.51l-1.3.44a.51.51,0,0,1-.53-.09Z"/><path class="cls-11" d="M216.47,146.76l-9.9,2.15,1.66,7.63,9.71-2.19a6.78,6.78,0,0,0,1.1-3.57C218.89,149.14,216.47,146.76,216.47,146.76Z"/><path class="cls-11" d="M156.3,108.28,137.51,134.8s-6.11.76-5.66,2.3c.35,1.17,3,.18,3,.18.48,0-1.28,1.91-1.95,2.47s-3.3,2.23-3.32,2.94,4.19-1.54,4.26-1.33-3.46,3.26-3.2,3.86c.47,1.07,3.32-1.61,4.14-2.42-.56.63-3.22,3.72-2.7,4.26s3.26-3.05,3.44-3.07-2.34,2.94-1.9,3.5,1.64-1.16,2.11-1.59c.68-.62,21.76-24.92,29.28-31.67C162.73,112.57,158.41,110.29,156.3,108.28Z"/><path class="cls-13" d="M149.59,116.14,161,123.53a67.67,67.67,0,0,0,8-9.14c3.6-5,6.22-7.88,6.05-14.83s1.9-10-2.56-13.18-6-5.08-9.19.41-5.14,13.88-7.52,18.22S149.59,116.14,149.59,116.14Z"/><path class="cls-5" d="M183,121.3S172.87,137.5,168.52,144s-6.35,12.27-4.82,16.46c2.26,6.2,12.59,8.56,20.52,6.38s28.93-9.33,28.93-9.33l-1.87-9.64-26.44,4.51,22.24-25.5.31-7.46Z"/><path class="cls-9" d="M220.93,113.52S193.81,111,191,120.08s-2.43,17.74,0,31.26,3.49,23.34,3.49,23.34h10.84l2.1-36.44s6,3.57,12.24.4,8.4-7,7.7-12.24S220.93,113.52,220.93,113.52Z"/><path class="cls-13" d="M172.21,80.47S166,83,165.13,84.74s2.33,14.76,5,19.39,6.79,11.33,9.89,14.13,2.07,4.45,2.07,4.45,15.14,2.49,22.55,0,16.27-9.17,16.27-9.17-15.35-24.33-19.34-28.84S198.34,78,193,77.23a33.64,33.64,0,0,0-14.24,1.18C174.72,79.59,172.21,80.47,172.21,80.47Z"/><path class="cls-14" d="M201.59,84.68c-4-4.5-3.25-6.72-8.64-7.45a33.64,33.64,0,0,0-14.24,1.18c-2.4.71-4.27,1.31-5.37,1.68a3,3,0,0,0-.61,3.1,6.28,6.28,0,0,0,3.11,2.49c2.9,1.37,6.12,1.95,9,3.34a9.57,9.57,0,0,1,3.93,3.53,3.72,3.72,0,0,1,0,3.77,14.24,14.24,0,0,1-3.23,3.52,25,25,0,0,0-3.87,3.82,6.23,6.23,0,0,0-1.31,5,3.89,3.89,0,0,0,3,2.53c1.5.44,3.07.62,4.59,1a5.86,5.86,0,0,1,3.49,2.12c2.7,4.06-2.92,7.13-6,8.84,4.92.57,13.92,1.27,19.12-.49,7.41-2.51,16.27-9.17,16.27-9.17S205.58,89.19,201.59,84.68Z"/><path class="cls-11" d="M185.06,69l1.2,8.42-4.68,5.13c-1.55,1.38-6.06,4.33-6.9-.17h0l.74-7.65,7.7-7a7.75,7.75,0,0,1,1.33,1.14C184.6,69.23,185.06,69,185.06,69Z"/><path class="cls-11" d="M178.2,54.21a5.87,5.87,0,0,1,1.7-.16c.17,0,.35.11.54.15,6.93,1.48,5.78,9,5.82,10.28.08,2.26-2.12,9.07-5.77,9.41-.36,0-3.82,2.39-6.94,0-1.67-1.28-3-4.31-.49-14C173.73,57.25,175.16,55,178.2,54.21Z"/><path class="cls-12" d="M184.32,68.44c0,3.36,0,5.29,3.91,4.93-.43-1.44-1.19-2.62-1-4.3s1.2-2.52,1.9-3.89c1.69-3.26,2.85-6.62,1-10.18-1.56-3.08-4.92-5.6-8.32-5.59s-6.61-.3-9.46-1.91c-1.34-.76-2.16-1.85-3.63-.83s-1.53,3.39-1.6,4.81a8.35,8.35,0,0,0,4.3,7.5c3,1.53,6.16-.81,9.4.52,3.44,1.4,3.67,3.81,3.52,7.13a9.08,9.08,0,0,1-.25,2.64"/><path class="cls-11" d="M183.9,66.89a2.41,2.41,0,1,0,2.41-2.41A2.41,2.41,0,0,0,183.9,66.89Z"/><path class="cls-15" d="M178.65,69.89c-1.66.57-3.38.67-4.65-.78"/><path class="cls-16" d="M177.25,62c-1.05,1.38-5.53,5.42-1.46,5.8"/><path class="cls-12" d="M178.65,64a.67.67,0,1,0,.67-.62A.65.65,0,0,0,178.65,64Z"/><path class="cls-12" d="M173.66,62.6a.67.67,0,1,0,.67-.62A.65.65,0,0,0,173.66,62.6Z"/><path class="cls-16" d="M181.94,63.61c-.06-1-1.42-1.57-2.17-1.86"/><path class="cls-16" d="M175.66,60.74a5.33,5.33,0,0,0-1.3-.48.47.47,0,0,1,.14-.14"/><path class="cls-11" d="M190.75,119.9,172,146.42s-6.11.77-5.66,2.31c.34,1.16,3,.18,3,.18.48,0-1.28,1.91-2,2.47s-3.3,2.22-3.32,2.93,4.19-1.53,4.26-1.32-3.46,3.26-3.2,3.85c.47,1.08,3.32-1.6,4.13-2.41-.55.62-3.21,3.71-2.69,4.25s3.26-3.05,3.44-3.06-2.34,2.94-1.9,3.49,1.64-1.15,2.11-1.59c.68-.61,21.76-24.91,29.28-31.66C197.18,124.2,192.86,121.92,190.75,119.9Z"/><path class="cls-13" d="M189.41,86.65s-2.47-9.35,4.73-9.56c7.56-.22,18,9.68,17.64,33.2-.21,12.57-17.05,23.21-17.05,23.21l-10.63-6.42,8.51-17.69Z"/><polygon class="cls-6" points="87.73 158.31 163.85 164.14 162.83 174.68 86.74 167.65 87.73 158.31"/><polygon class="cls-5" points="83.48 167.65 83.48 171.83 163.85 179.06 162.83 174.68 83.48 167.65"/><polygon class="cls-12" points="189.91 173.36 189.91 169.03 162.83 174.68 163.85 179.06 189.91 173.36"/><path class="cls-12" d="M106.33,175.12a2.82,2.82,0,1,1-2.82-2.82A2.82,2.82,0,0,1,106.33,175.12Z"/><path class="cls-12" d="M146.44,179.06a2.82,2.82,0,1,1-2.82-2.82A2.82,2.82,0,0,1,146.44,179.06Z"/><path class="cls-17" d="M89.06,146.12s4.29,7.06,9.27,10.79,34.15,4.82,37,5l28.56,2.19L189,158.31s-39.31,0-62.48-18.42c-3.93-3.13-1.24-6.29-1.24-6.29Z"/><line class="cls-18" x1="89.22" y1="161.53" x2="162.83" y2="167.65"/><line class="cls-18" x1="88.49" y1="163.43" x2="162.1" y2="169.55"/><line class="cls-18" x1="88.49" y1="165.98" x2="162.1" y2="172.09"/><polygon class="cls-9" points="163.85 164.14 162.83 174.68 189.91 169.03 189.02 158.31 163.85 164.14"/><path class="cls-6" d="M170.44,161.85a57.36,57.36,0,0,0-6.9-.89c-2.25-.16-4.53-.1-6.77-.42a44,44,0,0,1-8.61-2.44c-1.43-.51-2.87-1-4.33-1.44a21.67,21.67,0,0,0-4.21-.92c-4.78-.36-9.5,1.34-14.29.81a6.9,6.9,0,0,1-5-2.39,5.51,5.51,0,0,1-.4-5.24,17.09,17.09,0,0,1,3.62-5.68,17.6,17.6,0,0,1,3.44-3l-.47-.36c-3.93-3.13-1.24-6.29-1.24-6.29L89.06,146.12s4.29,7.06,9.27,10.79,34.15,4.82,37,5l28.56,2.19,8.26-1.92C171.55,162.09,171,162,170.44,161.85Z"/><path class="cls-18" d="M209.33,132.42s.09-.19.08-.09c-.19,1,.06,1.95-.13,2.9a5.93,5.93,0,0,1-1.27,2.4"/><path class="cls-18" d="M206.07,133c.07,0,.48,1.29.64,1.65.31.72.83,1.43,1.07,2.16"/><path class="cls-18" d="M202.72,133c-.08.09.94.49,1.25.69a9.81,9.81,0,0,1,1.71,1.26c.74.76,1.17,1.87,1.79,2.55"/><line class="cls-19" x1="87.73" y1="158.31" x2="163.85" y2="164.14"/></g></g></g></svg>