<svg xmlns="http://www.w3.org/2000/svg" viewBox="0 0 281.83 224.24"><defs><style>.cls-1{isolation:isolate;}.cls-2{fill:#e5e7ed;}.cls-2,.cls-3{opacity:0.6;}.cls-12,.cls-14,.cls-16,.cls-3{fill:#d8dff4;}.cls-19,.cls-20,.cls-4,.cls-6,.cls-9{fill:none;stroke-miterlimit:10;}.cls-19,.cls-20,.cls-4{stroke:#fff;}.cls-4{stroke-width:0.26px;}.cls-15,.cls-5{fill:#32436b;}.cls-6{stroke:#12121c;stroke-width:1.05px;}.cls-7{fill:#12121c;}.cls-8{fill:#d3d4ed;}.cls-9{stroke:#32436b;}.cls-19,.cls-9{stroke-width:0.78px;}.cls-10{fill:#fff;}.cls-11,.cls-17{fill:#6e80b4;}.cls-12{opacity:0.5;}.cls-13{fill:#ff7875;}.cls-15{opacity:0.2;}.cls-15,.cls-16,.cls-17{mix-blend-mode:multiply;}.cls-17{opacity:0.4;}.cls-18{fill:#faa53c;}.cls-20{stroke-width:0.52px;}</style></defs><title>7</title><g class="cls-1"><g id="Layer_2" data-name="Layer 2"><g id="OBJECTS"><path class="cls-2" d="M35.25,132.55c8.61,21.57-7.46,30.73-5.09,50.12,3.72,30.45,46.06,11.37,61.49,7.92,17.09-3.82,34.39-2.81,51.89-2.81,18.76,0,38.93-1.18,57.58,1,12.07,1.41,22.84,7.66,35.37,6.15,11.11-1.35,20.27-7.93,28.05-16.35C283.67,157.88,284.91,131,278,104c-4.2-16.37-3.21-17.7-11.52-46.29-4.37-15-10.89-45.29-74-46.69-17.09-.38-33.21,2.4-50.14,4C53.18,23.63,5.65,58.37,35.25,132.55Z"/><path class="cls-3" d="M109.68,174.38c-4.71-4.64-11.75-7.6-17.58-10.53-8.23-4.13-17-3.67-25.52-6.9-14-5.32-26.93-14.75-35.43-27.12-7.62-11.1-14.7-20.89-17.21-34.36-.95-5.08-1.69-10-3.61-14.88-2.06-5.19-5.24-8-8.15-12.17A12,12,0,0,0,0,66.7c6.38-2.2,15.11.15,21.63,1.2s14.28,1.25,20.52,4c16.08,7,29.8,20,38.38,35.11a236.85,236.85,0,0,1,16.13,35c3.2,8.59,5,17.7,9.07,25.89,1,2.12,4.14,5.62,3.47,7.37"/><path class="cls-4" d="M13.76,74C21.4,77.33,25.86,81.75,31,88c8.3,10,16.18,20,25.63,29.23,8.46,8.24,17.08,16.33,25.61,24.51,3.6,3.46,7.37,6.84,11.16,10.08,2.63,2.25,7.34,3.64,9.3,6.2"/><path class="cls-4" d="M46.76,137.5a62.78,62.78,0,0,0,25.7,3.42"/><path class="cls-4" d="M26.4,111.94c6.12,6.82,15.4,5.86,22.81,8.67"/><path class="cls-4" d="M21,93.94a35.18,35.18,0,0,0,14,7.71"/><path class="cls-4" d="M41.2,92.5c-3.12-4-3.6-11.89-5-16.64"/><path class="cls-4" d="M56.74,111.08c-3.11-4.28-2.79-9-3.28-14-.33-3.42-4.08-12.7-3.5-13.87"/><path class="cls-4" d="M79.79,134.24a72,72,0,0,1-6.36-24.92"/><path class="cls-3" d="M80,159.5c-1.1-6.86-5.21-13.75-8.34-19.86C67.22,131,59.49,126,54.29,117.91c-8.57-13.25-13.62-29.25-13.12-45,.45-14.15.54-26.85,6.8-39.83,2.36-4.89,4.81-9.54,6.2-14.85,1.5-5.68.52-10,.67-15.37A12.15,12.15,0,0,0,54.07,0c6.77,2.1,12.71,9.53,17.58,14.49S83,24.43,86.56,30.62c9.25,16,12.8,35.49,10.66,53.64A250.48,250.48,0,0,1,89.1,124c-2.64,9.27-6.75,18.13-8.43,27.58-.44,2.45,0,7.34-1.66,8.41"/><path class="cls-4" d="M61.19,14.75c4.39,7.58,5.42,14.1,5.9,22.6.78,13.68,1.24,27.06,3.52,40.72,2,12.25,4.3,24.47,6.44,36.71.9,5.17,2,10.38,3.18,15.49.83,3.54,4,7.65,4,11"/><path class="cls-4" d="M49.62,89.1A66,66,0,0,0,69.26,108"/><path class="cls-4" d="M48.27,54.77c.94,9.59,9.4,14.54,13.93,21.54"/><path class="cls-4" d="M54.93,36.18A37,37,0,0,0,62,51.41"/><path class="cls-4" d="M72.91,47.5c-.18-5.28,4.35-12.3,6.14-17.19"/><path class="cls-4" d="M74.52,72.92c0-5.57,3.25-9.39,6-13.92,1.84-3.1,4.44-13.29,5.67-13.92"/><path class="cls-4" d="M79.63,106.89A75.63,75.63,0,0,1,89.75,81.82"/><rect class="cls-5" x="239.53" y="96.58" width="9.98" height="85.58"/><rect class="cls-5" x="227.52" y="178.02" width="32.5" height="8.98"/><rect class="cls-5" x="227.52" y="182.16" width="3.38" height="8.24"/><rect class="cls-5" x="256.65" y="182.16" width="3.38" height="8.24"/><line class="cls-6" x1="244.52" y1="113.01" x2="244.52" y2="177.58"/><rect class="cls-5" x="69.63" y="95.53" width="9.98" height="77.58"/><rect class="cls-5" x="57.62" y="169.36" width="32.5" height="8.14"/><rect class="cls-5" x="57.62" y="173.11" width="3.38" height="7.47"/><rect class="cls-5" x="86.76" y="173.11" width="3.38" height="7.47"/><polygon class="cls-7" points="70.47 90.41 73.42 108.79 230.66 112.62 230.66 92.74 70.47 90.41"/><polygon class="cls-8" points="50.67 90.17 57.38 108.44 73.42 108.79 70.47 90.41 50.67 90.17"/><polygon class="cls-8" points="261.77 113.5 228.96 112.58 227.52 94.57 261.77 94.57 261.77 113.5"/><line class="cls-9" x1="230.66" y1="94.57" x2="260.04" y2="94.57"/><line class="cls-9" x1="53.42" y1="91.07" x2="68.71" y2="91.07"/><path class="cls-4" d="M238.67,70.24a147.42,147.42,0,0,0,.12,16.21c.32,2.46,1,4.4,3.27,4.74,1.17.17,6.69,1.3,7.68.66,3.15-2,1.71-22.07.94-22.77-.49-.45-10.72-.55-11.77-.55Z"/><line class="cls-4" x1="238.6" y1="74.63" x2="251.56" y2="76.19"/><line class="cls-4" x1="238.5" y1="83.71" x2="251.56" y2="85.13"/><line class="cls-4" x1="240.96" y1="68.49" x2="240.96" y2="91.07"/><line class="cls-4" x1="248.72" y1="68.8" x2="248.72" y2="92.04"/><path class="cls-8" d="M77.61,54.49s0-13,8.32-14.07c3.66-.46,155.43-3.2,155.43-3.2l-3.14,15Z"/><polygon class="cls-5" points="241.36 37.22 246.42 52.25 238.22 52.25 241.36 37.22"/><polygon class="cls-5" points="60.08 54.49 268.04 51.72 261.77 64.18 49.01 64.78 60.08 54.49"/><polygon class="cls-10" points="49.01 64.78 50.67 90.17 261.77 94.57 261.77 64.18 49.01 64.78"/><polygon class="cls-10" points="234.77 48.73 80.75 50.89 80.75 48.37 235.38 45.85 234.77 48.73"/><polygon class="cls-11" points="68.72 66.92 70.47 90.41 227.52 92.74 227.52 66.92 68.72 66.92"/><polygon class="cls-12" points="69.68 79.83 227.52 81.23 227.52 87.86 70.15 86.11 69.68 79.83"/><line class="cls-6" x1="101.15" y1="66.92" x2="101.94" y2="90.17"/><polygon class="cls-11" points="232.38 55.34 227.52 64.28 261.77 64.18 265.95 55.25 232.38 55.34"/><line class="cls-4" x1="230.9" y1="60.31" x2="261.77" y2="60.31"/><line class="cls-4" x1="232.6" y1="57.69" x2="261.77" y2="57.69"/><line class="cls-4" x1="237.43" y1="55.25" x2="232.6" y2="62.79"/><line class="cls-4" x1="260.02" y1="55.25" x2="256.67" y2="62.01"/><line class="cls-4" x1="243.72" y1="55.25" x2="240.19" y2="62.79"/><line class="cls-4" x1="251.17" y1="55.25" x2="247.85" y2="62.01"/><path class="cls-13" d="M253.47,59.15a.45.45,0,0,1-.45.45.46.46,0,0,1-.46-.45.47.47,0,0,1,.46-.46A.46.46,0,0,1,253.47,59.15Z"/><path class="cls-13" d="M255.88,59.15a.46.46,0,0,1-.46.45.45.45,0,0,1-.45-.45.46.46,0,0,1,.45-.46A.47.47,0,0,1,255.88,59.15Z"/><path class="cls-5" d="M244.17,59a.46.46,0,0,1-.45.46.46.46,0,1,1,0-.92A.46.46,0,0,1,244.17,59Z"/><path class="cls-5" d="M239.53,59.15a.46.46,0,0,1-.91,0,.46.46,0,1,1,.91,0Z"/><path class="cls-5" d="M246.79,59a.46.46,0,1,1-.46-.46A.46.46,0,0,1,246.79,59Z"/><path class="cls-5" d="M237.43,59.15a.46.46,0,0,1-.91,0,.46.46,0,1,1,.91,0Z"/><rect class="cls-14" x="227.52" y="64.28" width="34.25" height="30.29"/><polygon class="cls-5" points="268.04 51.72 268.04 105.97 261.77 113.5 261.77 64.28 268.04 51.72"/><path class="cls-13" d="M236,73.13a2.24,2.24,0,1,1-2.23-2.23A2.23,2.23,0,0,1,236,73.13Z"/><path class="cls-11" d="M242.41,73.16a2.24,2.24,0,1,1-2.24-2.24A2.23,2.23,0,0,1,242.41,73.16Z"/><path class="cls-11" d="M248.76,73.18a2.24,2.24,0,1,1-2.24-2.24A2.24,2.24,0,0,1,248.76,73.18Z"/><path class="cls-5" d="M255.44,73.2A2.24,2.24,0,1,1,253.2,71,2.24,2.24,0,0,1,255.44,73.2Z"/><path class="cls-11" d="M235.56,78.91a2.24,2.24,0,1,1-2.24-2.23A2.24,2.24,0,0,1,235.56,78.91Z"/><path class="cls-11" d="M242,78.94a2.24,2.24,0,1,1-2.23-2.24A2.24,2.24,0,0,1,242,78.94Z"/><path class="cls-11" d="M248.3,79a2.24,2.24,0,1,1-2.24-2.23A2.24,2.24,0,0,1,248.3,79Z"/><path class="cls-11" d="M255,79a2.24,2.24,0,1,1-2.23-2.24A2.24,2.24,0,0,1,255,79Z"/><path class="cls-11" d="M236,85.42a2.24,2.24,0,1,1-2.23-2.23A2.23,2.23,0,0,1,236,85.42Z"/><path class="cls-11" d="M242.41,85.45a2.24,2.24,0,1,1-2.24-2.24A2.24,2.24,0,0,1,242.41,85.45Z"/><path class="cls-11" d="M248.75,85.47a2.24,2.24,0,1,1-2.23-2.24A2.23,2.23,0,0,1,248.75,85.47Z"/><path class="cls-11" d="M255.44,85.5a2.24,2.24,0,1,1-2.24-2.24A2.23,2.23,0,0,1,255.44,85.5Z"/><path class="cls-15" d="M107.58,59.84c2.09-3.69,6.64-5.13,10.53-5.91.41-.09.82-.16,1.23-.23l-59.26.79L49,64.78l62.5-.17C108.38,63.73,106.2,62.27,107.58,59.84Z"/><path class="cls-16" d="M236.75,46.28c-8.54,1.17-17.45.89-26.05,1.26-9.59.41-19.18.78-28.76,1.25-8.27.39-16.59.74-24.84,1.56-7.11.71-14.27,2.46-21.45,2.2-4.42-.15-11-1-14.1-4.63-2.3-2.73-1.35-6.12.94-8.42-20.36.43-35.44.78-36.56.92-8.32,1-8.32,14.07-8.32,14.07l160.61-2.24,1.34-6.41C238.62,46,237.69,46.15,236.75,46.28Z"/><path class="cls-17" d="M119.91,87c-2-1.53-5.34-3.58-5.48-6.41-.18-3.47,3.31-5,6.24-5.39,4.9-.6,9.92.17,14.84.26,16.33.32,32.5-1.61,48.79-2.36a134.25,134.25,0,0,1,24.14.62c6.35.86,12.69,1.56,19.08,1.86v-9H68.71l1.76,23.49,53.49.79A18.31,18.31,0,0,0,119.91,87Z"/><polygon class="cls-7" points="69.15 73.15 227.35 73.69 227.52 66.92 68.72 66.92 69.15 73.15"/><line class="cls-6" x1="143.27" y1="66.92" x2="143.27" y2="91.49"/><line class="cls-6" x1="189.31" y1="66.92" x2="189.82" y2="91.97"/><path class="cls-18" d="M79,90A184.94,184.94,0,0,1,78.68,124c-1.89,18.21-3.08,35.85-10.33,49.12S45,196.68,45,196.68l166.51,27.56s11.06-30.82,14-49.91,1.41-45.63.46-57.49-1.2-24.41-1.2-24.41Z"/><path class="cls-14" d="M84.34,144.57c0,7.23,5.6,13.16,9.3,19,3.81,6,2.62,9.67,2.5,16.44-.13,7.41,2.67,15.71,9.57,19.38,12,6.41,21.63-3.53,26.14-13.74,3.46-7.85,5.31-16.39,12.34-22.08,8.55-6.92,19.82-7.63,30-5,7,1.81,13.33,3.92,20-.35,7.07-4.56,16.87-15.64,14.68-25-.89-3.83-3.85-7-5.19-10.67-1.22-3.36-.1-6.69-.82-9.46-2.26-8.77-20.73-7-28-6.43-9.86.78-19.78,3.78-29.64,3.87-8.42.07-9.49-7.89-16.85-8.16C84.39,100.73,84.25,133.27,84.34,144.57Z"/><path class="cls-11" d="M135.19,175.62c6.14,6.75,16.11,9.2,23.93,13.85,7.16,4.26,8.84,14.65,16.65,17.1,9.35,2.93,16.45-4.37,20.58-11.65,4.25-7.49,8.75-11.42,14.38-17.65,5.2-5.76,7.4-12.76,2.74-19.28-4.18-5.85-10.2-10.41-15.76-15C171.38,121.26,98.47,135.26,135.19,175.62Z"/><path class="cls-19" d="M67.71,187.16c5.82-10.46,18.44-21.31,32.34-20.24,16,1.24,29.36,9.58,46,7.22,22.77-3.22,42.69-16.15,50.77-38.51,3.34-9.23,3.94-19.09,12.8-25.2,1.18-.82,6.25-4.07,4.75-2.48"/><path class="cls-19" d="M70.81,194.54c12.63-28,44.15-15.85,65.89-11.67,18.37,3.53,42.8-2.49,54.67-17.83a76.51,76.51,0,0,0,14.54-30.26c2.69-11.34,8.76-16.49,16.34-24.13"/><path class="cls-20" d="M92.83,134.3c-.22,3.23,4.21,4.38,4.6,1,.34-3-5.12-3.55-4.09.6"/><path class="cls-20" d="M101.38,115.46c-1.87,2.62,1.13,5.58,3.77,3.2,3.3-3-1-5.17-3.68-4.7a12.08,12.08,0,0,0-.1,3.6"/><path class="cls-20" d="M105,127c-2.88,3.15,2.12,8.34,4.17,4.27,1.7-3.39-5-6.59-4.2-1.11"/><path class="cls-20" d="M115.06,112.94c-1.58,3.28,1.44,9,4.6,4.63,2.67-3.67-4.53-8.71-5.13-3.06"/><path class="cls-20" d="M161.59,207.35c-.52,2.39.95,3.82,3.13,4.18,1.63-2,1.51-4.33-1-5.26a4.12,4.12,0,0,0-1.6,3.19"/><path class="cls-20" d="M177.51,187.51c-4.71,1.64-1.1,9.16,2.48,5.26,2.61-2.85-2-6.06-4.08-2.64"/><path class="cls-20" d="M180,203.3c-3.53,3.39.21,11.47,4,7.27,3.34-3.69-1.76-7.08-5-6.68a3.84,3.84,0,0,0,.41,3.08"/><path class="cls-20" d="M192.8,180.81c-.79,1.5-.62,6.83,2.1,4.25,1.89-1.78.62-5.35-2-4.28-.5,1,.46.8.45,1.08"/><path class="cls-16" d="M213.91,207.69a30.88,30.88,0,0,0-11.5-2.71c-3.46-.11-7,.13-10.4-.29-10.1-1.25-21.85-8.25-23.27-19.14-1.2-9.25,3-18.46-.43-27.59a27.9,27.9,0,0,0-18.09-16.61c-14.83-4.59-30.72-1.2-45.85-3.76-6.9-1.17-13.74-3.69-18.74-8.78a32.82,32.82,0,0,1-6.51-9.87c-.12,1.64-.26,3.32-.44,5-1.89,18.21-3.08,35.85-10.33,49.12S45,196.68,45,196.68l166.51,27.56s2.3-6.42,5.08-15.21A28.42,28.42,0,0,0,213.91,207.69Z"/><rect class="cls-5" x="93.71" y="91.62" width="6.83" height="3.84" transform="translate(2.85 189.95) rotate(-89.56)"/><rect class="cls-5" x="153.69" y="92.58" width="6.83" height="3.84" transform="translate(61.41 250.88) rotate(-89.56)"/><rect class="cls-5" x="201.29" y="93.73" width="6.83" height="3.84" transform="translate(107.5 299.62) rotate(-89.56)"/></g></g></g></svg>