<svg xmlns="http://www.w3.org/2000/svg" viewBox="0 0 310.43 17.39"><defs><style>.cls-1{fill:#14387f;fill-rule:evenodd;}</style></defs><title>line</title><g id="Layer_2" data-name="Layer 2"><g id="Layer_1-2" data-name="Layer 1"><path class="cls-1" d="M305.7,1.7A170.27,170.27,0,0,0,286.51.17c-6.38-.24-12.76-.2-19.14,0-12.82.33-16.22.38-20.27.58l-14,.85-3.42.2h-.49l-76.38,5L76.39,12,38.2,14.51c-12.73.83-25.46,1.74-38.2,2.4,12.75-.16,25.51-.07,38.27-.06l38.28.08,76.56.27h.47c21.83,0,43.81.25,65.77.18h0l2.49,0,17.32-.15q10.35-.15,20.68-.46l.44,0,.9,0,.45,0h.45l.45,0H263l.45,0,.75,0h.32l.72,0,.45,0,.45,0h.1l1.7-.06c6.37-.23,12.74-.6,19.09-1.25a170.08,170.08,0,0,0,19.05-2.76A5.46,5.46,0,0,0,305.7,1.7Z"/></g></g></svg>