<svg id="Layer_1" data-name="Layer 1" xmlns="http://www.w3.org/2000/svg" viewBox="0 0 376.57 234.89"><defs><style>.cls-1{fill:#14387f;}.cls-1,.cls-2{fill-rule:evenodd;}.cls-2{fill:#6e8826;}</style></defs><title>logo</title><path class="cls-1" d="M264.84,16.79A12.18,12.18,0,1,1,252.66,29a12.17,12.17,0,0,1,12.18-12.18ZM190.81,179c24.24,0,48.67.33,73,.16-6.18,15.82-11.8,31.93-19,50.61a3.78,3.78,0,0,0,6.91,3l0,0c4.7-9.5,9.1-19.13,13.58-28.71s2.7-7.24,7.17-16.75c1.3-2.77,2.59-5.54,3.9-8.31q10.35-.15,20.67-.46l.45,0,.9,0,.45,0h.45l.45,0h.44l.45,0,.76,0h.31l.73,0,.45,0,.45,0h.09l1.7-.06c6.37-.23,12.74-.6,19.1-1.25a172.73,172.73,0,0,0,19.05-2.75,5.47,5.47,0,0,0-.35-10.78A172.82,172.82,0,0,0,323.75,162c-6.39-.24-12.77-.2-19.14,0-12.83.33-16.22.38-20.28.58.59-1.18,1.18-2.36,1.78-3.53l2-4a123.67,123.67,0,0,0,12.15-5,195.33,195.33,0,0,0,28.52-16.72,143.75,143.75,0,0,0,24.93-22.38A163.83,163.83,0,0,0,364,97.71a96.6,96.6,0,0,0,8.71-14.87,46.5,46.5,0,0,0,3.13-9,23.19,23.19,0,0,0-.05-11.75c-3-10-13.68-14-21.34-12.38a32.79,32.79,0,0,0-9.76,3.4,41.71,41.71,0,0,0-4.19,2.54c-.68.49-1.36,1-2,1.52s-1.14,1-1.71,1.46A96.82,96.82,0,0,0,325,71c-3.52,4.37-6.67,8.86-9.68,13.34l-8.8,13.23c-5.85,8.85-11.66,17.83-17.1,27.11-3,5.33-5.74,10.46-8.28,15.46a52.63,52.63,0,0,1-14.75,2.64c-4.31.12-8.65-.71-10.82-2.1a4.21,4.21,0,0,1-1.79-1.94,3.91,3.91,0,0,1,.06-2.57,21.17,21.17,0,0,1,2.35-5c1.14-1.87,2.56-3.81,4.14-6l9.3-12.92,2.33-3.23.29-.4.14-.2a10.14,10.14,0,0,0,.88-1.49,9,9,0,0,0-1.84-10.23,9.24,9.24,0,0,0-4.54-2.44,9.1,9.1,0,0,0-5.7.7A8.89,8.89,0,0,0,259,96.45l-.43.4-.35.33q-2.76,2.7-5.61,5.32-5.67,5.25-11.58,10.23A241.67,241.67,0,0,1,216.53,131c-8.44,5.46-17.3,10.24-26.25,13a39.94,39.94,0,0,1-13,1.94,12.3,12.3,0,0,1-1.5-.12,13.16,13.16,0,0,1-1.39-.16,9.36,9.36,0,0,1-5.65-3.18c-.12-.14-.23-.29-.35-.44,1.5-.69,3-1.39,4.48-2.12a154.22,154.22,0,0,0,27.83-17.55,155.22,155.22,0,0,0,12.35-11,70.06,70.06,0,0,0,11-13.47A37.29,37.29,0,0,0,227.88,89c.2-.84.42-1.53.57-2.5a21.89,21.89,0,0,0,.31-3,14.4,14.4,0,0,0-.3-3.44c-.14-.61-.27-1.22-.47-1.83s-.53-1.24-.83-1.84A13.43,13.43,0,0,0,221.7,71a18.48,18.48,0,0,0-3.06-1.32c-8-2.08-14.58-.66-22.07,2.39a59.93,59.93,0,0,0-8,4.09A79.26,79.26,0,0,0,174.9,86.86a119,119,0,0,0-11.27,12.6,69.86,69.86,0,0,0-9.08,15.08,53.81,53.81,0,0,0-3,8.77,44.64,44.64,0,0,0-1.16,9.49,33.77,33.77,0,0,0,.17,4.38q-5.59,2.16-11.34,3.95c-4.9,1.54-10,2.77-14.93,4.15a98.84,98.84,0,0,1-14.8,2.6,44,44,0,0,1-14.15-.83,28.09,28.09,0,0,1-6.33-2.35A24.45,24.45,0,0,1,86.2,143a19.4,19.4,0,0,1-2.64-2.07,28.14,28.14,0,0,1-4.47-5.18,26.11,26.11,0,0,1-3.13-6,33.34,33.34,0,0,1-1.69-13.81A77.4,77.4,0,0,1,77,101.09a132.19,132.19,0,0,1,4.81-14.62A203.21,203.21,0,0,1,95.47,58.53l.27-.46,2.87-4.85C103,46,107.6,39,112.31,31.94l8.83-13.14,8.94-13,.06-.09a2.82,2.82,0,0,0-4.62-3.23l-9.26,13-9.06,13c-5.68,8.17-11.29,16.44-16.6,25l-2.71,4.46A202.16,202.16,0,0,0,74.72,83.6a140.12,140.12,0,0,0-5.48,15.32,85.49,85.49,0,0,0-3.4,16.25,42.07,42.07,0,0,0,1.75,17.44,35,35,0,0,0,3.94,8.11,37.5,37.5,0,0,0,5.68,6.93,30.52,30.52,0,0,0,3.5,2.91A34.44,34.44,0,0,0,84.55,153a37.9,37.9,0,0,0,8.39,3.38,53.55,53.55,0,0,0,17.3,1.52,106.9,106.9,0,0,0,16.44-2.43c5.24-1.3,10.49-2.45,15.71-3.93q5.73-1.62,11.37-3.62a26.23,26.23,0,0,0,3.23,4.71,25.6,25.6,0,0,0,9.08,6.75,25.07,25.07,0,0,0,5.47,1.68,24.54,24.54,0,0,0,2.54.36c.81.08,1.64.22,2.43.22a55.92,55.92,0,0,0,18.24-2.35c11.34-3.32,21.27-8.65,30.62-14.5,4-2.59,7.95-5.31,11.77-8.12a19.33,19.33,0,0,0,1.34,8.2,20.64,20.64,0,0,0,8.44,9.79,30.33,30.33,0,0,0,10.2,3.75,47.54,47.54,0,0,0,9.55.72c1.91,0,3.78-.21,5.63-.42-.68,1.54-1.35,3.07-2,4.61l-3.41.2h-.49l-76.39,5-76.38,5.18-38.19,2.53c-12.73.83-25.46,1.74-38.19,2.4,12.75-.16,25.51-.07,38.27-.06l38.28.08,76.55.27h.47ZM360.6,70.35a31.52,31.52,0,0,1-2.17,5.9c-4,8.27-10.21,16.61-16.72,24.14a128.18,128.18,0,0,1-22.21,19.73,172,172,0,0,1-18,11c5.3-8.62,11-17.08,16.82-25.54l9-13c3-4.23,6-8.33,9.14-12.13a88.5,88.5,0,0,1,10.16-10.39c.44-.36.95-.81,1.32-1.09s.75-.56,1.15-.84a24,24,0,0,1,2.6-1.53,18,18,0,0,1,5.13-1.78,6.9,6.9,0,0,1,1.73,0,1.27,1.27,0,0,0,.26,0,.31.31,0,0,0,.16.06c.2.09.53.26.81.36a6.23,6.23,0,0,0,.56.35c0,.14.24.18.26.27a1.43,1.43,0,0,1,.25.54,8.63,8.63,0,0,1-.27,3.9ZM185.08,97.16a64.33,64.33,0,0,1,11-9,45.23,45.23,0,0,1,6-3.27,32,32,0,0,1,6.09-2.1,16.17,16.17,0,0,1,3.87-.42c1.18,0,3.32,0,3.59,1.5.23,1.31-2.19,6.28-2.88,7.5a57.43,57.43,0,0,1-8.8,11.13,141.85,141.85,0,0,1-11.05,10.32,142.83,142.83,0,0,1-25.3,16.75c-.57.3-1.14.58-1.72.87,1.12-12.47,10.82-24.62,19.19-33.24ZM347.79,5.92a5.18,5.18,0,0,0-1.38-4.34,5.16,5.16,0,0,0-7.29-.14l-.05,0a45.3,45.3,0,0,0-5.88,7.15,73.26,73.26,0,0,0-4.66,7.77q-4.25,8-7.95,16.25c-4.82,11.07-9.8,22.08-14.56,33.19s-9.58,22.23-14.43,33.32S282,121.4,277,132.39c6-10.46,12.41-20.73,18.6-31.11s12.46-20.73,18.82-31,12.42-20.78,18.68-31.15q4.59-7.83,8.67-15.93a74.18,74.18,0,0,0,3.65-8.31A44.43,44.43,0,0,0,347.79,5.92Z"/><path class="cls-2" d="M95.74,58.07c8.92.23,17.85.48,26.78.82q30.63,1.05,61.26,1.78c20.41.42,40.83,1.09,61.25,1,4.41,0,8-2.66,8-5.92s-3.56-6-8-6c-20.42-.11-40.83.56-61.25,1s-40.84,1.08-61.26,1.78l-23.91.74-8,.2c-9.78.24-19.56.44-29.34.67l-30.63.68c-10.21.28-20.42.3-30.63.92,10.21.61,20.42.63,30.63.91l30.63.68,26.63.6Z"/></svg>